# AST/ASF file generated using VICON BodyLanguage
# -----------------------------------------------
:version 1.10
:name VICON
:units
  mass 1.0
  length 0.45
  angle deg
:documentation
   .ast/.asf automatically generated from VICON data using
   VICON BodyBuilder and BodyLanguage model FoxedUp or BRILLIANT.MOD
:root
   order TX TY TZ RX RY RZ
   axis XYZ
   position 0 0 0  
   orientation 0 0 0 
:bonedata
  begin
     id 1 
     name lhipjoint
     direction 0.646657 -0.683706 0.338203 
     length 2.4948 
     axis 0 0 0  XYZ
  end
  begin
     id 2 
     name lfemur
     direction 0.34202 -0.939693 0  
     length 6.79491  
     axis 0 0 20  XYZ
    dof rx ry rz
    limits (-160.0 20.0)
           (-70.0 70.0)
           (-60.0 70.0)
  end
  begin
     id 3 
     name ltibia
     direction 0.34202 -0.939693 0   
     length 7.56807   
     axis 0 0 20   XYZ
    dof rx
    limits (-10.0 170.0)
  end
  begin
     id 4 
     name lfoot
     direction 0.0679796 -0.186772 0.980048   
     length 2.53018   
     axis -90 7.62852e-016 20   XYZ
    dof rx rz
    limits (-45.0 90.0)
           (-70.0 20.0)
  end
  begin
     id 5 
     name ltoes
     direction 1.53625e-011 -4.21881e-011 1   
     length 1.26912   
     axis -90 7.62852e-016 20   XYZ
    dof rx
    limits (-90.0 20.0)
  end
  begin
     id 6 
     name rhipjoint
     direction -0.618868 -0.704065 0.348274   
     length 2.42265  
     axis 0 0 0  XYZ 
  end
  begin
     id 7 
     name rfemur
     direction -0.34202 -0.939693 0   
     length 6.73814   
     axis 0 0 -20   XYZ
    dof rx ry rz
    limits (-160.0 20.0)
           (-70.0 70.0)
           (-70.0 60.0)
  end
  begin
     id 8 
     name rtibia
     direction -0.34202 -0.939693 0   
     length 7.66799   
     axis 0 0 -20   XYZ
    dof rx
    limits (-10.0 170.0)
 end
 begin
     id 9 
     name rfoot
     direction -0.0727352 -0.199838 0.977125   
     length 2.57224  
     axis -90 -7.62852e-016 -20   XYZ
    dof rx rz
    limits (-45.0 90.0)
           (-20.0 70.0)
  end
  begin
     id 10 
     name rtoes
     direction -1.53501e-011 -4.21858e-011 1   
     length 1.28858   
     axis -90 -7.62852e-016 -20   XYZ
    dof rx
    limits (-90.0 20.0)
  end
  begin
     id 11 
     name lowerback
     direction -0.0172471 0.995767 -0.0902851   
     length 2.20206   
     axis 0 0 0   XYZ
    dof rx ry rz
    limits (-20.0 45.0)
           (-30.0 30.0)
           (-30.0 30.0)
  end
  begin
     id 12 
     name upperback
     direction -0.000110737 0.999714 0.0239043   
     length 2.19523   
     axis 0 0 0   XYZ
    dof rx ry rz
    limits (-20.0 45.0)
           (-30.0 30.0)
           (-30.0 30.0)
  end
  begin
     id 13 
     name thorax
     direction 0.00704869 0.997783 0.0661741   
     length 2.21977   
     axis 0 0 0   XYZ
    dof rx ry rz
    limits (-20.0 45.0)
           (-30.0 30.0)
           (-30.0 30.0)
  end
  begin
     id 14 
     name lowerneck
     direction -0.00407501 0.995527 0.0943846   
     length 1.83142   
     axis 0 0 0   XYZ
    dof rx ry rz
    limits (-20.0 45.0)
           (-30.0 30.0)
           (-30.0 30.0)
  end
  begin
     id 15 
     name upperneck
     direction 0.0640586 0.986486 -0.150807   
     length 1.84616   
     axis 0 0 0   XYZ
    dof rx ry rz
    limits (-20.0 45.0)
           (-30.0 30.0)
           (-30.0 30.0)
  end
  begin
     id 16
     name head
     direction 0.0188017 0.99791 -0.0618239  
     length 1.85932  
     axis 0 0 0   XYZ
    dof rx ry rz
    limits (-20.0 45.0)
           (-30.0 30.0)
           (-30.0 30.0)
  end
  begin
     id 17 
     name lclavicle
     direction 0.976074 0.206905 0.066852  
     length 3.81043  
     axis 0 0 0   XYZ
    dof ry rz
    limits (-20.0 10.0)
           (0.0 20.0)
  end
  begin
     id 18 
     name lhumerus
     direction 1 -4.48971e-011 1.86916e-027   
     length 5.37587   
     axis 180 -30 -90   XYZ
    dof rx ry rz
    limits (-60.0 90.0)
           (-90.0 90.0)
           (-90.0 90.0)
  end
  begin
     id 19
     name lradius
     direction 1 -4.48968e-011 1.69187e-027   
     length 3.35977   
     axis 180 -30 -90   XYZ
    dof rx
    limits (-10.0 170.0)
  end
  begin
     id 20
     name lwrist
     direction 1 -4.48968e-011 5.8978e-027   
     length 1.67988   
     axis -3.27506e-015 90 90   XYZ
    dof ry
    limits (-180.0 0.0)
 end
  begin
     id 21 
     name lhand
     direction 1 -4.49028e-011 1.18071e-026   
     length 0.561859   
     axis -7.52654e-015 90 90   XYZ
    dof rx rz
    limits (-90.0 90.0)
           (-45.0 45.0)
  end
  begin
     id 22 
     name lfingers
     direction 1 -4.48927e-011 2.35758e-026   
     length 0.452985   
     axis -1.50534e-014 90 90   XYZ
    dof rx
    limits (0.0 90.0)
  end
  begin
     id 23
     name lthumb
     direction 0.707107 -6.34898e-011 0.707107   
     length 0.650399   
     axis -90 45 5.69224e-014   XYZ
    dof rx rz
    limits (-45.0 45.0)
           (-45.0 45.0)
  end
  begin
     id 24 
     name rclavicle
     direction -0.988403 0.151789 0.00439714   
     length 3.6942  
     axis 0 0 0   XYZ 
    dof ry rz
    limits (-10.0 20.0)
           (-20.0 0.0)
  end
  begin
     id 25 
     name rhumerus
     direction -1 -4.48978e-011 1.62495e-027  
     length 5.22819   
     axis 180 30 90   XYZ
    dof rx ry rz
    limits (-90.0 60.0)
           (-90.0 90.0)
           (-90.0 90.0)
  end
  begin
     id 26 
     name rradius
     direction -1 -4.48961e-011 3.47796e-027   
     length 3.40764   
     axis 180 30 90   XYZ
    dof rx
    limits (-10.0 170.0)
  end
  begin
     id 27 
     name rwrist
     direction -1 -4.48949e-011 5.89602e-027   
     length 1.70382   
     axis -3.27506e-015 -90 -90   XYZ
    dof ry
    limits (-180.0 0.0)
  end
  begin
     id 28
     name rhand
     direction -1 -4.48977e-011 1.17973e-026   
     length 0.583255   
     axis -7.52654e-015 -90 -90   XYZ
    dof rx rz
    limits (-90.0 90.0)
           (-45.0 45.0)
  end
  begin
     id 29
     name rfingers
     direction -1 -4.49099e-011 2.36408e-026   
     length 0.470235   
     axis -1.50534e-014 -90 -90   XYZ
    dof rx
    limits (0.0 90.0)
  end
  begin
     id 30
     name rthumb
     direction -0.707107 -6.35011e-011 0.707107   
     length 0.675167   
     axis -90 -45 -5.69224e-014   XYZ
    dof rx rz
    limits (-45.0 45.0)
           (-45.0 45.0)
  end
:hierarchy
  begin
    root lhipjoint rhipjoint lowerback
    lhipjoint lfemur
    lfemur ltibia
    ltibia lfoot
    lfoot ltoes
    rhipjoint rfemur
    rfemur rtibia
    rtibia rfoot
    rfoot rtoes
    lowerback upperback
    upperback thorax
    thorax lowerneck lclavicle rclavicle
    lowerneck upperneck
    upperneck head
    lclavicle lhumerus
    lhumerus lradius
    lradius lwrist
    lwrist lhand lthumb
    lhand lfingers
    rclavicle rhumerus
    rhumerus rradius
    rradius rwrist
    rwrist rhand rthumb
    rhand rfingers
  end

#!OML:ASF G:\JayActor3\Patient Classification 1\Patient 1\Session 2\male.ASF
:FULLY-SPECIFIED
:DEGREES
84
root 49.8663 16.6085 -7.23232 27.7897 -86.0662 -27.2172
lowerback -2.16803 0.487839 -0.141119
upperback 3.21238 0.604455 0.667628
thorax 4.51827 0.271823 0.803731
lowerneck -9.63382 -3.63441 -4.65411
upperneck 1.05297 -4.72015 8.16519
head 2.408 -2.17537 3.28467
rclavicle 8.7341e-015 -1.59028e-015
rhumerus -29.1664 -6.50112 -83.3064
rradius 27.0568
rwrist -0.0584296
rhand -21.3881 8.08255
rfingers 7.12502
rthumb 4.99959 -21.8385
lclavicle 8.7341e-015 -1.59028e-015
lhumerus -26.1128 4.02695 87.4315
lradius 24.3941
lwrist 7.55803
lhand -20.6768 17.2693
lfingers 7.12502
lthumb 5.68642 47.173
rfemur -10.345 -0.463356 20.8207
rtibia 35.2759
rfoot -26.1969 -8.43459
rtoes 17.0356
lfemur -6.3916 1.64786 -17.8558
ltibia 26.6147
lfoot -18.9947 14.7145
ltoes -6.23214
85
root 49.8653 16.6088 -7.23185 27.8521 -86.0702 -27.2691
lowerback -2.17321 0.484205 -0.13807
upperback 3.21011 0.599612 0.665533
thorax 4.51898 0.269587 0.799606
lowerneck -9.62802 -3.63895 -4.65039
upperneck 1.06529 -4.7269 8.15687
head 2.41109 -2.17879 3.28075
rclavicle -1.86982e-015 2.28602e-015
rhumerus -29.1728 -6.50572 -83.3138
rradius 27.0595
rwrist -0.0632273
rhand -21.388 8.07316
rfingers 7.12502
rthumb 4.99972 -21.8479
lclavicle -1.86982e-015 2.28602e-015
lhumerus -26.1197 4.03663 87.4257
lradius 24.4011
lwrist 7.5487
lhand -20.6803 17.2592
lfingers 7.12502
lthumb 5.68301 47.163
rfemur -10.3524 -0.457827 20.821
rtibia 35.2733
rfoot -26.1986 -8.43496
rtoes 17.0489
lfemur -6.39796 1.63934 -17.8585
ltibia 26.6128
lfoot -18.9979 14.7284
ltoes -6.23902
86
root 49.8644 16.609 -7.23134 27.9454 -86.0731 -27.353
lowerback -2.17898 0.481561 -0.131687
upperback 3.20916 0.595891 0.663942
thorax 4.5214 0.267993 0.794216
lowerneck -9.62331 -3.64449 -4.64999
upperneck 1.07712 -4.73473 8.15185
head 2.41454 -2.18268 3.27854
rclavicle -3.82039e-015 -4.37326e-015
rhumerus -29.1805 -6.50723 -83.3213
rradius 27.0635
rwrist -0.071322
rhand -21.3874 8.06682
rfingers 7.12502
rthumb 5.00031 -21.8542
lclavicle -3.82039e-015 -4.37326e-015
lhumerus -26.126 4.04187 87.4228
lradius 24.4107
lwrist 7.54442
lhand -20.6855 17.2456
lfingers 7.12502
lthumb 5.67805 47.1495
rfemur -10.3583 -0.454265 20.8237
rtibia 35.2702
rfoot -26.1976 -8.43521
rtoes 17.0564
lfemur -6.40418 1.63706 -17.8575
ltibia 26.6123
lfoot -19.001 14.7353
ltoes -6.24356
87
root 49.8635 16.609 -7.2308 28.0248 -86.076 -27.4238
lowerback -2.18573 0.479125 -0.12639
upperback 3.20971 0.592461 0.662416
thorax 4.52593 0.266487 0.789539
lowerneck -9.61766 -3.65069 -4.65608
upperneck 1.08703 -4.74299 8.1534
head 2.41771 -2.1867 3.27986
rclavicle -1.29831e-015 7.35503e-015
rhumerus -29.189 -6.50678 -83.328
rradius 27.0686
rwrist -0.078331
rhand -21.385 8.06738
rfingers 7.12502
rthumb 5.0026 -21.8536
lclavicle -1.29831e-015 7.35503e-015
lhumerus -26.1292 4.05301 87.4198
lradius 24.4175
lwrist 7.53553
lhand -20.6897 17.222
lfingers 7.12502
lthumb 5.67397 47.1261
rfemur -10.3634 -0.452065 20.8251
rtibia 35.2673
rfoot -26.195 -8.43335
rtoes 17.0656
lfemur -6.4102 1.6367 -17.8568
ltibia 26.6128
lfoot -19.0048 14.7379
ltoes -6.2436
88
root 49.8625 16.609 -7.23029 28.128 -86.0791 -27.52
lowerback -2.19307 0.478513 -0.119363
upperback 3.213 0.591349 0.660457
thorax 4.53364 0.266164 0.783611
lowerneck -9.61234 -3.6582 -4.66526
upperneck 1.09394 -4.75285 8.16144
head 2.42042 -2.19144 3.28391
rclavicle 9.0944e-015 1.35174e-014
rhumerus -29.1957 -6.50911 -83.3346
rradius 27.0738
rwrist -0.0828869
rhand -21.3818 8.07162
rfingers 7.12502
rthumb 5.00573 -21.8492
lclavicle 9.0944e-015 1.35174e-014
lhumerus -26.1269 4.05889 87.4178
lradius 24.4233
lwrist 7.53007
lhand -20.6904 17.1865
lfingers 7.12502
lthumb 5.67323 47.0905
rfemur -10.3672 -0.448588 20.8282
rtibia 35.2643
rfoot -26.1921 -8.43155
rtoes 17.0735
lfemur -6.4153 1.64198 -17.8534
ltibia 26.6145
lfoot -19.0079 14.7343
ltoes -6.23699
89
root 49.8617 16.6089 -7.22981 28.2136 -86.082 -27.6018
lowerback -2.19873 0.478016 -0.114652
upperback 3.21931 0.590391 0.659209
thorax 4.54351 0.265787 0.779727
lowerneck -9.60781 -3.66552 -4.67791
upperneck 1.09736 -4.76204 8.17255
head 2.4223 -2.19583 3.28973
rclavicle -7.41715e-015 6.36111e-015
rhumerus -29.2001 -6.50911 -83.3398
rradius 27.0783
rwrist -0.0857373
rhand -21.3776 8.07862
rfingers 7.12502
rthumb 5.00971 -21.8422
lclavicle -7.41715e-015 6.36111e-015
lhumerus -26.1192 4.06588 87.4176
lradius 24.4272
lwrist 7.52578
lhand -20.6869 17.1521
lfingers 7.12502
lthumb 5.67663 47.0561
rfemur -10.3678 -0.448689 20.83
rtibia 35.2618
rfoot -26.1885 -8.4278
rtoes 17.0739
lfemur -6.41723 1.6518 -17.85
ltibia 26.6169
lfoot -19.0101 14.7273
ltoes -6.23693
90
root 49.8609 16.6087 -7.22946 28.2635 -86.0845 -27.6511
lowerback -2.20028 0.477536 -0.113935
upperback 3.22653 0.589592 0.658318
thorax 4.55193 0.265337 0.778425
lowerneck -9.59969 -3.6719 -4.69104
upperneck 1.09293 -4.76967 8.18445
head 2.42081 -2.19964 3.29599
rclavicle -2.00648e-015 -9.93923e-016
rhumerus -29.2066 -6.51227 -83.3422
rradius 27.083
rwrist -0.0839014
rhand -21.3731 8.08926
rfingers 7.12502
rthumb 5.01415 -21.8314
lclavicle -2.00648e-015 -9.93923e-016
lhumerus -26.1089 4.07467 87.418
lradius 24.4283
lwrist 7.52144
lhand -20.6751 17.1117
lfingers 7.12502
lthumb 5.68806 47.0154
rfemur -10.3651 -0.451118 20.8301
rtibia 35.2596
rfoot -26.1841 -8.42626
rtoes 17.055
lfemur -6.41506 1.66378 -17.8475
ltibia 26.6196
lfoot -19.0128 14.7156
ltoes -6.23187
91
root 49.8601 16.6086 -7.22912 28.3089 -86.0877 -27.6981
lowerback -2.19958 0.477316 -0.114728
upperback 3.23455 0.589153 0.658133
thorax 4.55989 0.26499 0.7787
lowerneck -9.5891 -3.67676 -4.70047
upperneck 1.08239 -4.77524 8.1922
head 2.41634 -2.20266 3.3002
rclavicle -1.73688e-014 -3.08116e-015
rhumerus -29.2128 -6.51442 -83.343
rradius 27.0868
rwrist -0.0822971
rhand -21.3684 8.09564
rfingers 7.12502
rthumb 5.01863 -21.8249
lclavicle -1.73688e-014 -3.08116e-015
lhumerus -26.0947 4.08348 87.4206
lradius 24.4278
lwrist 7.52048
lhand -20.6614 17.0794
lfingers 7.12502
lthumb 5.70126 46.9827
rfemur -10.3606 -0.452851 20.8294
rtibia 35.2579
rfoot -26.1821 -8.42221
rtoes 17.0422
lfemur -6.41052 1.67367 -17.846
ltibia 26.6223
lfoot -19.0144 14.7105
ltoes -6.24259
92
root 49.8595 16.6085 -7.2289 28.3162 -86.0888 -27.7085
lowerback -2.19565 0.476318 -0.118223
upperback 3.24113 0.58782 0.658089
thorax 4.5645 0.264124 0.780539
lowerneck -9.57265 -3.68012 -4.70759
upperneck 1.06856 -4.77891 8.19746
head 2.40936 -2.20494 3.30325
rclavicle 9.72181e-015 4.87022e-015
rhumerus -29.2231 -6.51864 -83.3417
rradius 27.089
rwrist -0.0807148
rhand -21.3648 8.09667
rfingers 7.12502
rthumb 5.0221 -21.8238
lclavicle 9.72181e-015 4.87022e-015
lhumerus -26.0833 4.09452 87.4238
lradius 24.4277
lwrist 7.51941
lhand -20.6476 17.0475
lfingers 7.12502
lthumb 5.71464 46.9505
rfemur -10.354 -0.45535 20.828
rtibia 35.2566
rfoot -26.1813 -8.42025
rtoes 17.0255
lfemur -6.40423 1.68319 -17.8451
ltibia 26.6248
lfoot -19.0171 14.7022
ltoes -6.24571
93
root 49.8589 16.6084 -7.22871 28.3209 -86.0904 -27.7157
lowerback -2.1923 0.475661 -0.12236
upperback 3.24647 0.587011 0.657789
thorax 4.56813 0.263518 0.782502
lowerneck -9.55505 -3.68273 -4.70799
upperneck 1.0536 -4.78196 8.19592
head 2.40121 -2.20709 3.30266
rclavicle 7.90169e-015 -1.88845e-015
rhumerus -29.236 -6.52481 -83.3394
rradius 27.0889
rwrist -0.0791545
rhand -21.3615 8.09544
rfingers 7.12502
rthumb 5.02532 -21.825
lclavicle 7.90169e-015 -1.88845e-015
lhumerus -26.074 4.10698 87.4275
lradius 24.4291
lwrist 7.51756
lhand -20.6385 17.0211
lfingers 7.12502
lthumb 5.72337 46.9238
rfemur -10.3478 -0.455329 20.8266
rtibia 35.2556
rfoot -26.1823 -8.41711
rtoes 17.0181
lfemur -6.39793 1.69023 -17.8452
ltibia 26.6268
lfoot -19.02 14.6974
ltoes -6.25046
